<svg id="Layer_1" data-name="Layer 1" xmlns="http://www.w3.org/2000/svg" xmlns:xlink="http://www.w3.org/1999/xlink" viewBox="0 0 1012.97 228.15"><defs><style>.cls-1{fill:url(#linear-gradient);}.cls-2{fill:url(#linear-gradient-2);}.cls-3{fill:#231f20;}.cls-4{fill:#fff;}</style><linearGradient id="linear-gradient" x1="227.59" y1="180.12" x2="155.39" y2="12.41" gradientUnits="userSpaceOnUse"><stop offset="0" stop-color="#4b0000"/><stop offset="1" stop-color="#ed1c24"/></linearGradient><linearGradient id="linear-gradient-2" x1="46.37" y1="-41.87" x2="219.32" y2="245.79" gradientUnits="userSpaceOnUse"><stop offset="0" stop-color="#fff"/><stop offset="1"/></linearGradient></defs><title>biglogo</title><polygon class="cls-1" points="278.91 54.32 278.91 0 200.07 0 119.41 57.28 119.41 228.15 166.96 228.15 166.96 142.74 256.51 142.74 256.51 91.43 166.96 91.43 166.96 54.32 278.91 54.32"/><path class="cls-2" d="M135.55,75.55V249H92.81V75.55H21.89V20.89H212.56l-77,54.66h0Z" transform="translate(-21.89 -20.89)"/><path class="cls-3" d="M374.27,113.56v76.25H345.11V113.56H324.32v-24h70.74v24H374.27Z" transform="translate(-21.89 -20.89)"/><path class="cls-3" d="M493.06,189.82H458.94l-14.65-38.35h-9.71v38.35H403.8V89.54h52.38q17.34,0,26.92,8.12t9.59,21.41a32.2,32.2,0,0,1-3.53,15.32q-3.53,6.65-14.25,11.72ZM434.58,130h13.15q5.8,0,9.33-2.42a8.09,8.09,0,0,0,3.53-7.13q0-9.62-11.83-9.62H434.58V130Z" transform="translate(-21.89 -20.89)"/><path class="cls-3" d="M562.9,189.82l-5.67-19.76H530.37l-6,19.76h-25l31-100.28h32.54l31.45,100.28H562.9Zm-27.3-41.65h16.22l-8.11-29.09Z" transform="translate(-21.89 -20.89)"/><path class="cls-3" d="M634.33,89.54V189.82H603.55V89.54h30.78Z" transform="translate(-21.89 -20.89)"/><path class="cls-3" d="M722.11,165.21v24.61h-70.3V89.54h30.78v75.67h39.52Z" transform="translate(-21.89 -20.89)"/><path class="cls-3" d="M795.5,152.28H762.81v37.54h-30V89.54h72.51v23.88H762.81v16.31H795.5v22.55Z" transform="translate(-21.89 -20.89)"/><path class="cls-3" d="M885.42,165.21v24.61h-70.3V89.54H845.9v75.67h39.52Z" transform="translate(-21.89 -20.89)"/><path class="cls-3" d="M926.92,89.54V189.82H896.14V89.54h30.78Z" transform="translate(-21.89 -20.89)"/><path class="cls-3" d="M1030.23,89.54l-29.15,46.51,33.77,53.76H999l-18.52-31.58-18.69,31.58H933.66L966,138l-31-48.5h35.9l15.56,27,16.15-27h27.64Z" transform="translate(-21.89 -20.89)"/><path class="cls-4" d="M366.9,108.85V185.1H337.73V108.85H316.94v-24h70.74v24H366.9Z" transform="translate(-21.89 -20.89)"/><path class="cls-4" d="M485.68,185.1H451.56l-14.65-38.35h-9.71V185.1H396.43V84.83h52.38q17.34,0,26.92,8.12t9.59,21.41a32.2,32.2,0,0,1-3.53,15.32q-3.53,6.65-14.25,11.72Zm-58.48-59.8h13.15q5.8,0,9.33-2.42a8.09,8.09,0,0,0,3.53-7.13q0-9.62-11.83-9.62H427.21V125.3Z" transform="translate(-21.89 -20.89)"/><path class="cls-4" d="M555.52,185.1l-5.67-19.76H523l-6,19.76H492l31-100.28h32.54L586.93,185.1H555.52Zm-27.3-41.65h16.22l-8.11-29.09Z" transform="translate(-21.89 -20.89)"/><path class="cls-4" d="M627,84.83V185.1H596.17V84.83H627Z" transform="translate(-21.89 -20.89)"/><path class="cls-4" d="M714.74,160.49V185.1h-70.3V84.83h30.78v75.67h39.52Z" transform="translate(-21.89 -20.89)"/><path class="cls-4" d="M788.13,147.56H755.44V185.1h-30V84.83H798V108.7H755.44V125h32.69v22.55Z" transform="translate(-21.89 -20.89)"/><path class="cls-4" d="M878,160.49V185.1h-70.3V84.83h30.78v75.67H878Z" transform="translate(-21.89 -20.89)"/><path class="cls-4" d="M919.55,84.83V185.1H888.77V84.83h30.78Z" transform="translate(-21.89 -20.89)"/><path class="cls-4" d="M1022.86,84.83l-29.15,46.51,33.77,53.76H991.67l-18.52-31.58L954.46,185.1H926.29l32.3-51.78-31-48.5h35.9l15.56,27,16.15-27h27.64Z" transform="translate(-21.89 -20.89)"/></svg>