<svg id="Layer_1" data-name="Layer 1" xmlns="http://www.w3.org/2000/svg" xmlns:xlink="http://www.w3.org/1999/xlink" viewBox="0 0 895.01 119.51"><defs><style>.cls-1{fill:url(#linear-gradient);}.cls-2{fill:url(#linear-gradient-2);}.cls-3{fill:#231f20;}.cls-4{fill:#fff;}</style><linearGradient id="linear-gradient" x1="119.22" y1="94.35" x2="81.39" y2="6.5" gradientUnits="userSpaceOnUse"><stop offset="0" stop-color="#4b0000"/><stop offset="1" stop-color="#ed1c24"/></linearGradient><linearGradient id="linear-gradient-2" x1="31.14" y1="-11.66" x2="121.73" y2="139.02" gradientUnits="userSpaceOnUse"><stop offset="0" stop-color="#fff"/><stop offset="1"/></linearGradient></defs><title>smalllogo</title><polygon class="cls-1" points="146.09 28.45 146.09 0 104.8 0 62.55 30.01 62.55 119.51 87.46 119.51 87.46 74.77 134.36 74.77 134.36 47.89 87.46 47.89 87.46 28.45 146.09 28.45"/><path class="cls-2" d="M77.85,49.85v90.88H55.47V49.85H18.32V21.22h99.87L77.85,49.85h0Z" transform="translate(-18.32 -21.22)"/><path class="cls-3" d="M252.74,54.86v76.25H223.57V54.86H202.78v-24h70.74v24H252.74Z" transform="translate(-18.32 -21.22)"/><path class="cls-3" d="M371.53,131.11H337.4L322.76,92.76h-9.71v38.35H282.27V30.83h52.38q17.34,0,26.92,8.12t9.59,21.41a32.2,32.2,0,0,1-3.53,15.32q-3.53,6.65-14.25,11.72Zm-58.48-59.8H326.2q5.8,0,9.33-2.42a8.09,8.09,0,0,0,3.53-7.13q0-9.62-11.83-9.62H313.05V71.31Z" transform="translate(-18.32 -21.22)"/><path class="cls-3" d="M441.36,131.11l-5.67-19.76H408.83l-6,19.76h-25l31-100.28h32.54l31.45,100.28H441.36Zm-27.3-41.65h16.22l-8.11-29.09Z" transform="translate(-18.32 -21.22)"/><path class="cls-3" d="M512.79,30.83V131.11H482V30.83h30.78Z" transform="translate(-18.32 -21.22)"/><path class="cls-3" d="M600.58,106.5v24.61h-70.3V30.83h30.78V106.5h39.52Z" transform="translate(-18.32 -21.22)"/><path class="cls-3" d="M674,93.57H641.28v37.54h-30V30.83h72.51V54.71H641.28V71H674V93.57Z" transform="translate(-18.32 -21.22)"/><path class="cls-3" d="M763.89,106.5v24.61h-70.3V30.83h30.78V106.5h39.52Z" transform="translate(-18.32 -21.22)"/><path class="cls-3" d="M805.39,30.83V131.11H774.61V30.83h30.78Z" transform="translate(-18.32 -21.22)"/><path class="cls-3" d="M908.7,30.83L879.55,77.35l33.77,53.76H877.51L859,99.53,840.3,131.11H812.13l32.3-51.78-31-48.5h35.9l15.56,27,16.15-27H908.7Z" transform="translate(-18.32 -21.22)"/><path class="cls-4" d="M245.37,50.14v76.25H216.2V50.14H195.41v-24h70.74v24H245.37Z" transform="translate(-18.32 -21.22)"/><path class="cls-4" d="M364.15,126.39H330L315.38,88h-9.71v38.35H274.9V26.12h52.38q17.34,0,26.92,8.12t9.59,21.41A32.2,32.2,0,0,1,360.26,71Q356.73,77.62,346,82.68ZM305.68,66.6h13.15q5.8,0,9.33-2.42A8.09,8.09,0,0,0,331.68,57q0-9.62-11.83-9.62H305.68V66.6Z" transform="translate(-18.32 -21.22)"/><path class="cls-4" d="M434,126.39l-5.67-19.76H401.46l-6,19.76h-25l31-100.28H434L465.4,126.39H434Zm-27.3-41.65h16.22L414.8,55.65Z" transform="translate(-18.32 -21.22)"/><path class="cls-4" d="M505.42,26.12V126.39H474.64V26.12h30.78Z" transform="translate(-18.32 -21.22)"/><path class="cls-4" d="M593.21,101.78v24.61H522.9V26.12h30.78v75.67h39.52Z" transform="translate(-18.32 -21.22)"/><path class="cls-4" d="M666.6,88.85H633.91v37.54h-30V26.12h72.51V50H633.91V66.3H666.6V88.85Z" transform="translate(-18.32 -21.22)"/><path class="cls-4" d="M756.51,101.78v24.61h-70.3V26.12H717v75.67h39.52Z" transform="translate(-18.32 -21.22)"/><path class="cls-4" d="M798,26.12V126.39H767.24V26.12H798Z" transform="translate(-18.32 -21.22)"/><path class="cls-4" d="M901.33,26.12L872.18,72.63,906,126.39H870.14L851.62,94.81l-18.69,31.58H804.76l32.3-51.78-31-48.5H842l15.56,27,16.15-27h27.64Z" transform="translate(-18.32 -21.22)"/></svg>